<?xml version="1.0" encoding="UTF-8"?>
<svg version="1.1" xmlns="http://www.w3.org/2000/svg" width="35px" height="35px">
<path d="M0 0 C0.78898682 -0.02618408 1.57797363 -0.05236816 2.39086914 -0.0793457 C10.92812486 -0.10364273 17.10516323 3.59678007 23.1875 9.375 C23.1875 10.035 23.1875 10.695 23.1875 11.375 C23.8475 11.375 24.5075 11.375 25.1875 11.375 C28.71257191 17.32355885 29.61870067 22.33249977 29.6875 29.125 C29.70554687 29.83833496 29.72359375 30.55166992 29.7421875 31.28662109 C29.6183963 42.89462482 24.58954185 53.35241975 19.1875 63.375 C18.32983032 64.99438477 18.32983032 64.99438477 17.45483398 66.64648438 C12.41617862 76.09734891 7.1145516 85.39009448 1.75292969 94.66015625 C-39.4408399 166.10038048 -70.0071426 242.37283159 -69.99780273 326.10473633 C-70.00002108 328.33368172 -70.01834669 330.56215516 -70.03710938 332.79101562 C-70.04003883 334.22395667 -70.04202662 335.65690002 -70.04296875 337.08984375 C-70.04707764 338.36980225 -70.05118652 339.64976074 -70.05541992 340.96850586 C-69.71286971 345.77212708 -68.31986169 348.59986408 -65.703125 352.59765625 C-63.17678901 356.92031555 -63.35759143 360.92227825 -63.5625 365.8125 C-63.58054687 366.63943359 -63.59859375 367.46636719 -63.6171875 368.31835938 C-63.6638786 370.33774933 -63.73560607 372.35653445 -63.8125 374.375 C-64.4725 374.375 -65.1325 374.375 -65.8125 374.375 C-65.874375 375.096875 -65.93625 375.81875 -66 376.5625 C-67.64537755 382.25803767 -72.85425805 385.54171889 -77.8125 388.375 C-93.92126046 392.1431311 -108.44728006 386.86024257 -121.96435547 378.54589844 C-131.31881132 372.61935019 -139.71786236 365.93282048 -147.8125 358.375 C-149.20362536 357.16124946 -150.59921325 355.95258747 -152 354.75 C-155.2484418 351.92898475 -158.2851155 348.95330647 -161.26953125 345.85546875 C-162.94957372 344.15664495 -162.94957372 344.15664495 -165.8125 342.375 C-165.8125 341.715 -165.8125 341.055 -165.8125 340.375 C-166.36679688 340.15714844 -166.92109375 339.93929688 -167.4921875 339.71484375 C-170.54342652 337.952933 -172.63426546 335.5503201 -174.9375 332.9375 C-175.92038142 331.83967227 -176.90345824 330.74201946 -177.88671875 329.64453125 C-178.37833496 329.0923291 -178.86995117 328.54012695 -179.37646484 327.97119141 C-180.67444511 326.52845169 -182.00163394 325.11212132 -183.33203125 323.69921875 C-221.12244157 283.46677868 -239.30664853 232.06256372 -237.8125 177.375 C-236.22589095 138.78985961 -214.01729379 106.02150269 -186.625 80.375 C-142.16072102 41.01422506 -80.77535175 14.42596843 -22.8125 2.375 C-21.68199219 2.13265625 -20.55148437 1.8903125 -19.38671875 1.640625 C-12.95167536 0.45458961 -6.52923879 0.12878803 0 0 Z " fill="#E3A934" transform="translate(1331.8125,1060.625)"/>
<path d="M0 0 C15.56594749 7.2962851 28.73947583 17.35164425 41.30712891 28.95410156 C43.03614022 30.47511151 44.76530641 31.99594543 46.49462891 33.51660156 C50.03563966 36.71174615 53.28267244 39.97667444 56.35009766 43.62597656 C57.87010225 45.43420558 59.41228634 47.20625745 60.98291016 48.96972656 C96.72502514 89.37668061 115.86440166 139.98658802 113.30712891 193.95410156 C112.64567363 200.79559263 111.1822591 207.35208069 109.30712891 213.95410156 C109.10345703 214.69837402 108.89978516 215.44264648 108.68994141 216.20947266 C101.47219127 241.94498451 87.02739136 265.02110886 68.30712891 283.95410156 C67.32590992 285.00427107 66.34681236 286.05642595 65.36962891 287.11035156 C53.02649535 300.20475525 38.01555573 310.29518752 22.30712891 318.95410156 C21.41670898 319.44571777 21.41670898 319.44571777 20.50830078 319.94726562 C-6.33907473 334.52941618 -35.53314021 344.3477485 -66.25537109 344.26660156 C-67.47933594 344.28271484 -68.70330078 344.29882812 -69.96435547 344.31542969 C-79.94755421 344.32074273 -90.79550823 343.72326973 -98.69287109 336.95410156 C-105.69857867 329.711486 -107.15488817 324.74282331 -107.12231445 314.80981445 C-106.85532244 304.40550208 -102.36436301 299.09212832 -95.00146484 292.05566406 C-93.00643315 290.23954384 -90.98982629 288.46110751 -88.94287109 286.70410156 C-72.73902817 272.65007542 -60.12373405 256.02177538 -48.69287109 237.95410156 C-48.30647461 237.34356934 -47.92007812 236.73303711 -47.52197266 236.10400391 C-21.82126669 195.1401377 -9.57569165 152.83423005 -18.69287109 104.95410156 C-18.98554563 103.39974548 -19.27818701 101.84538315 -19.57080078 100.29101562 C-22.95270486 82.41428249 -26.48863433 64.68094966 -31.50537109 47.18066406 C-34.6132119 36.30801727 -38.02113617 20.61063172 -32.69287109 9.95410156 C-32.03287109 8.96410156 -31.37287109 7.97410156 -30.69287109 6.95410156 C-30.03287109 6.95410156 -29.37287109 6.95410156 -28.69287109 6.95410156 C-28.36287109 5.96410156 -28.03287109 4.97410156 -27.69287109 3.95410156 C-27.03287109 3.95410156 -26.37287109 3.95410156 -25.69287109 3.95410156 C-25.69287109 3.29410156 -25.69287109 2.63410156 -25.69287109 1.95410156 C-17.29419462 -2.0038954 -8.85074265 -3.43758672 0 0 Z " fill="#D25B46" transform="translate(1282.69287109375,1519.0458984375)"/>
<path d="M0 0 C0.72994171 0.00060425 1.45988342 0.0012085 2.21194458 0.00183105 C12.87303397 0.02578232 23.29713635 0.26168938 33.8125 2.1875 C34.52293457 2.31640625 35.23336914 2.4453125 35.96533203 2.578125 C58.19168564 6.73204443 80.8709855 14.72908104 97.8125 30.1875 C98.78445313 31.03054688 99.75640625 31.87359375 100.7578125 32.7421875 C131.95449743 60.10554787 158.08407562 111.20723326 163.8125 152.1875 C163.97107025 155.18890298 163.99756076 158.18235334 164 161.1875 C164.01224609 161.9815625 164.02449219 162.775625 164.03710938 163.59375 C164.04791743 167.9169738 163.82214267 171.24764718 161.8125 175.1875 C161.1525 175.1875 160.4925 175.1875 159.8125 175.1875 C159.4825 176.5075 159.1525 177.8275 158.8125 179.1875 C158.1525 179.1875 157.4925 179.1875 156.8125 179.1875 C156.8125 179.8475 156.8125 180.5075 156.8125 181.1875 C149.48626663 187.03178873 141.71642986 187.27655344 132.73925781 186.45654297 C128.04801314 185.80148067 124.66573913 183.8366019 120.8125 181.1875 C120.25304688 180.80625977 119.69359375 180.42501953 119.1171875 180.03222656 C116.46462292 178.221768 113.82087913 176.39941247 111.18945312 174.55834961 C66.48132892 143.39703704 12.78913523 135.09584517 -40.1875 128.67626953 C-43.41984715 128.28450709 -46.64758486 127.86427922 -49.875 127.43359375 C-78.71064122 123.79783394 -114.11111087 122.65218909 -138.88671875 140.2890625 C-142.51549917 143.28326842 -145.89077274 146.54283496 -149.30322266 149.77905273 C-157.28457912 157.23856029 -164.69613025 161.54016709 -175.765625 161.41015625 C-179.74127128 161.04465329 -183.66365959 160.0988688 -187.1875 158.1875 C-187.5175 157.1975 -187.8475 156.2075 -188.1875 155.1875 C-188.785625 154.89875 -189.38375 154.61 -190 154.3125 C-194.50179967 151.99728874 -196.67036499 147.85153078 -198.1875 143.1875 C-198.41796875 139.92578125 -198.41796875 139.92578125 -198.375 136.5 C-198.36855469 135.36175781 -198.36210938 134.22351562 -198.35546875 133.05078125 C-198.1875 130.1875 -198.1875 130.1875 -197.1875 128.1875 C-197.8475 128.1875 -198.5075 128.1875 -199.1875 128.1875 C-200.11782481 109.99448152 -200.11782481 109.99448152 -194.1875 103.1875 C-192.96150424 101.56366456 -191.73562876 99.93973756 -190.51123047 98.31469727 C-184.54126296 90.49948619 -177.99211483 83.27646706 -171.1875 76.1875 C-170.70168457 75.67445312 -170.21586914 75.16140625 -169.71533203 74.6328125 C-162.13212305 66.64675346 -154.01527046 59.75923012 -145.1875 53.1875 C-144.63900391 52.77290527 -144.09050781 52.35831055 -143.52539062 51.93115234 C-101.28411315 20.09879181 -53.08065871 -0.08136468 0 0 Z " fill="#E06132" transform="translate(1504.1875,1338.8125)"/>
<path d="M0 0 C0.91652344 -0.03287109 1.83304688 -0.06574219 2.77734375 -0.09960938 C10.68397561 -0.16164429 14.94139077 2.37713081 20.95703125 7.2109375 C28.38864321 14.62446768 30.08171858 22.58757082 30.13500977 32.94555664 C29.808516 47.85308542 24.3170908 62.2436447 17.75 75.4375 C17.35538574 76.23768555 16.96077148 77.03787109 16.55419922 77.86230469 C4.54062337 102.01809123 -10.1849853 126.28806053 -28.25 146.4375 C-29.09046875 147.38367187 -29.9309375 148.32984375 -30.796875 149.3046875 C-50.1909348 170.29949419 -76.18319158 182.04062364 -104.57348633 183.56201172 C-147.46848809 184.98141266 -187.18119203 171.11273335 -218.65893555 141.81811523 C-220.19621526 140.36499409 -221.72416057 138.90262589 -223.25 137.4375 C-224.09546387 136.6328833 -224.09546387 136.6328833 -224.95800781 135.81201172 C-239.97563153 121.45363763 -259.99538834 101.55976567 -260.61132812 79.57177734 C-260.64656464 74.39326747 -260.49722739 70.16566644 -258.25 65.4375 C-257.59 65.4375 -256.93 65.4375 -256.25 65.4375 C-256.11851562 64.55964844 -256.11851562 64.55964844 -255.984375 63.6640625 C-255.05214104 60.83760846 -253.75205655 59.73436781 -251.5 57.8125 C-250.82453125 57.22210937 -250.1490625 56.63171875 -249.453125 56.0234375 C-240.16456656 49.33699295 -225.01927759 51.3569758 -214.28466797 53.00292969 C-207.37958331 54.15685129 -200.52450645 55.5785628 -193.6640625 56.96875 C-142.47339193 67.33321717 -90.43100279 52.59173779 -47.41650391 24.22851562 C-44.66519232 22.36086512 -41.94879709 20.44837133 -39.234375 18.52734375 C-34.67449379 15.33423322 -29.96363826 12.39627726 -25.25 9.4375 C-22.38575782 7.59914325 -19.52210206 5.75989853 -16.66015625 3.91796875 C-10.89134625 0.37440475 -6.71243378 0.04177863 0 0 Z " fill="#9A3C2B" transform="translate(1181.25,1485.5625)"/>
</svg>
